<svg width="20" height="40" viewBox="0 0 20 40" fill="none" xmlns="http://www.w3.org/2000/svg">
<path d="M17.2727 9.09091V30C17.2727 34.0182 14.0182 37.2727 10 37.2727C5.98182 37.2727 2.72727 34.0182 2.72727 30V7.27273C2.72727 6.0672 3.20617 4.91104 4.05861 4.05861C4.91104 3.20617 6.0672 2.72727 7.27273 2.72727C8.47826 2.72727 9.63441 3.20617 10.4868 4.05861C11.3393 4.91104 11.8182 6.0672 11.8182 7.27273V26.3636C11.8182 27.3636 11 28.1818 10 28.1818C9 28.1818 8.18182 27.3636 8.18182 26.3636V9.09091H5.45455V26.3636C5.45455 27.5692 5.93344 28.7253 6.78588 29.5778C7.63832 30.4302 8.79447 30.9091 10 30.9091C11.2055 30.9091 12.3617 30.4302 13.2141 29.5778C14.0666 28.7253 14.5455 27.5692 14.5455 26.3636V7.27273C14.5455 3.25455 11.2909 0 7.27273 0C3.25455 0 0 3.25455 0 7.27273V30C0 35.5273 4.47273 40 10 40C15.5273 40 20 35.5273 20 30V9.09091H17.2727Z" fill="#F8F8F8"/>
</svg>
