<svg width="108" height="108" viewBox="0 0 108 108" fill="none" xmlns="http://www.w3.org/2000/svg">
<circle cx="54" cy="54" r="52" fill="#C287FA" stroke="#7975EB" stroke-width="4"/>
<path d="M54 29C58.5833 29 62.3333 32.75 62.3333 37.3333C62.3333 41.9167 58.5833 45.6667 54 45.6667C49.4167 45.6667 45.6667 41.9167 45.6667 37.3333C45.6667 32.75 49.4167 29 54 29ZM54 66.5C65.25 66.5 78.1667 71.875 79 74.8333V79H29V74.875C29.8333 71.875 42.75 66.5 54 66.5ZM54 20.6667C44.7917 20.6667 37.3333 28.125 37.3333 37.3333C37.3333 46.5417 44.7917 54 54 54C63.2083 54 70.6667 46.5417 70.6667 37.3333C70.6667 28.125 63.2083 20.6667 54 20.6667ZM54 58.1667C42.875 58.1667 20.6667 63.75 20.6667 74.8333V87.3333H87.3333V74.8333C87.3333 63.75 65.125 58.1667 54 58.1667Z" fill="#8B6FE3"/>
</svg>
