<svg width="34" height="34" viewBox="0 0 34 34" fill="none" xmlns="http://www.w3.org/2000/svg">
<path d="M16.983 0C7.599 0 0 7.616 0 17C0 26.384 7.599 34 16.983 34C26.384 34 34 26.384 34 17C34 7.616 26.384 0 16.983 0ZM17 30.6C9.486 30.6 3.4 24.514 3.4 17C3.4 9.486 9.486 3.4 17 3.4C24.514 3.4 30.6 9.486 30.6 17C30.6 24.514 24.514 30.6 17 30.6ZM22.95 15.3C24.361 15.3 25.5 14.161 25.5 12.75C25.5 11.339 24.361 10.2 22.95 10.2C21.539 10.2 20.4 11.339 20.4 12.75C20.4 14.161 21.539 15.3 22.95 15.3ZM11.05 15.3C12.461 15.3 13.6 14.161 13.6 12.75C13.6 11.339 12.461 10.2 11.05 10.2C9.639 10.2 8.5 11.339 8.5 12.75C8.5 14.161 9.639 15.3 11.05 15.3ZM17 26.35C20.961 26.35 24.327 23.868 25.687 20.4H8.313C9.673 23.868 13.039 26.35 17 26.35Z" fill="#F8F8F8"/>
</svg>
