<svg width="55" height="56" viewBox="0 0 55 56" fill="none" xmlns="http://www.w3.org/2000/svg">
<g filter="url(#filter0_d_14_74)">
<path d="M27.5 0.632324C13.7 0.632324 2.5 11.997 2.5 26C2.5 40.0029 13.7 51.3676 27.5 51.3676C41.3 51.3676 52.5 40.0029 52.5 26C52.5 11.997 41.3 0.632324 27.5 0.632324ZM27.5 42.4889C25.425 42.4889 23.75 40.7893 23.75 38.6838H31.25C31.25 40.7893 29.575 42.4889 27.5 42.4889ZM40 36.147H15V33.6103L17.5 31.0735V24.4525C17.5 19.0746 20.075 14.5084 25 13.3161V12.0478C25 10.6018 26.075 9.511 27.5 9.511C28.925 9.511 30 10.6018 30 12.0478V13.3161C34.925 14.5084 37.5 19.1 37.5 24.4525V31.0735L40 33.6103V36.147Z" fill="white"/>
</g>
<defs>
<filter id="filter0_d_14_74" x="0.5" y="0.632324" width="54" height="54.7354" filterUnits="userSpaceOnUse" color-interpolation-filters="sRGB">
<feFlood flood-opacity="0" result="BackgroundImageFix"/>
<feColorMatrix in="SourceAlpha" type="matrix" values="0 0 0 0 0 0 0 0 0 0 0 0 0 0 0 0 0 0 127 0" result="hardAlpha"/>
<feOffset dy="2"/>
<feGaussianBlur stdDeviation="1"/>
<feComposite in2="hardAlpha" operator="out"/>
<feColorMatrix type="matrix" values="0 0 0 0 0 0 0 0 0 0 0 0 0 0 0 0 0 0 0.25 0"/>
<feBlend mode="normal" in2="BackgroundImageFix" result="effect1_dropShadow_14_74"/>
<feBlend mode="normal" in="SourceGraphic" in2="effect1_dropShadow_14_74" result="shape"/>
</filter>
</defs>
</svg>
