<svg width="37" height="34" viewBox="0 0 37 34" fill="none" xmlns="http://www.w3.org/2000/svg">
<path d="M26.6 0.484985C23.468 0.484985 20.462 1.94299 18.5 4.24699C16.538 1.94299 13.532 0.484985 10.4 0.484985C4.856 0.484985 0.5 4.84099 0.5 10.385C0.5 17.189 6.62 22.733 15.89 31.157L18.5 33.515L21.11 31.139C30.38 22.733 36.5 17.189 36.5 10.385C36.5 4.84099 32.144 0.484985 26.6 0.484985ZM18.68 28.475L18.5 28.655L18.32 28.475C9.752 20.717 4.1 15.587 4.1 10.385C4.1 6.78499 6.8 4.08499 10.4 4.08499C13.172 4.08499 15.872 5.86699 16.826 8.33299H20.192C21.128 5.86699 23.828 4.08499 26.6 4.08499C30.2 4.08499 32.9 6.78499 32.9 10.385C32.9 15.587 27.248 20.717 18.68 28.475Z" fill="#C287FA"/>
</svg>
