<svg width="72" height="72" viewBox="0 0 72 72" fill="none" xmlns="http://www.w3.org/2000/svg">
<g clip-path="url(#clip0_14_89)">
<path d="M70.3679 13.3288C69.2368 13.8305 68.0739 14.2539 66.8857 14.5977C68.2925 13.0067 69.3651 11.1347 70.0198 9.08617C70.1666 8.627 70.0144 8.12439 69.637 7.82408C69.2601 7.52354 68.7363 7.48754 68.3213 7.7335C65.7978 9.23017 63.0753 10.3058 60.2206 10.9347C57.345 8.12485 53.4394 6.52576 49.4018 6.52576C40.8791 6.52576 33.9452 13.4594 33.9452 21.9818C33.9452 22.6531 33.9877 23.3206 34.0718 23.9788C23.4959 23.0502 13.6638 17.8521 6.91203 9.56996C6.67141 9.27476 6.30072 9.11567 5.92121 9.14609C5.54147 9.17582 5.20028 9.38996 5.00844 9.71907C3.63904 12.0688 2.9151 14.7563 2.9151 17.4907C2.9151 21.2149 4.24477 24.7485 6.5936 27.5096C5.87941 27.2622 5.18635 26.9531 4.52488 26.5859C4.16975 26.3882 3.73636 26.3913 3.38356 26.5936C3.03053 26.7959 2.80919 27.1679 2.7999 27.5746C2.79827 27.6431 2.79827 27.7116 2.79827 27.7811C2.79827 33.3402 5.79022 38.3451 10.3645 41.073C9.97156 41.0337 9.57881 40.9768 9.18862 40.9023C8.78635 40.8254 8.3727 40.9664 8.10142 41.2732C7.82968 41.5798 7.73979 42.0071 7.86498 42.3973C9.55814 47.6835 13.9174 51.5718 19.1873 52.7572C14.8165 55.4948 9.81804 56.9288 4.57086 56.9288C3.476 56.9288 2.37486 56.8644 1.29719 56.7369C0.761832 56.6733 0.249935 56.9894 0.0676126 57.4985C-0.11471 58.0079 0.0785287 58.5757 0.533987 58.8677C7.27481 63.1898 15.0692 65.4743 23.0739 65.4743C38.8103 65.4743 48.6546 58.0536 54.1417 51.8284C60.984 44.0661 64.9082 33.7917 64.9082 23.6399C64.9082 23.2158 64.9017 22.7875 64.8887 22.3607C67.5883 20.3268 69.9125 17.8653 71.8038 15.0362C72.0911 14.6065 72.0599 14.0386 71.7271 13.6431C71.3948 13.2473 70.8408 13.1193 70.3679 13.3288Z" fill="white"/>
</g>
<defs>
<clipPath id="clip0_14_89">
<rect width="72" height="72" fill="white"/>
</clipPath>
</defs>
</svg>
