<svg width="30" height="31" viewBox="0 0 30 31" fill="none" xmlns="http://www.w3.org/2000/svg">
<path d="M20.8333 19.2584H19.5167L19.05 18.8084C20.7398 16.8484 21.6685 14.3462 21.6667 11.7584C21.6667 9.61576 21.0313 7.52124 19.8409 5.73971C18.6505 3.95818 16.9586 2.56964 14.9791 1.74969C12.9995 0.929743 10.8213 0.715207 8.71986 1.13321C6.6184 1.55122 4.68808 2.58299 3.17301 4.09806C1.65795 5.61313 0.626171 7.54345 0.208164 9.64491C-0.209842 11.7464 0.00469392 13.9246 0.824643 15.9041C1.64459 17.8837 3.03313 19.5756 4.81466 20.766C6.59619 21.9564 8.69071 22.5917 10.8333 22.5917C13.5167 22.5917 15.9833 21.6084 17.8833 19.9751L18.3333 20.4417V21.7584L26.6667 30.0751L29.15 27.5917L20.8333 19.2584ZM10.8333 19.2584C6.68334 19.2584 3.33334 15.9084 3.33334 11.7584C3.33334 7.60839 6.68334 4.25839 10.8333 4.25839C14.9833 4.25839 18.3333 7.60839 18.3333 11.7584C18.3333 15.9084 14.9833 19.2584 10.8333 19.2584Z" fill="#8B6FE3"/>
</svg>
